<svg width="62" height="37" xmlns="http://www.w3.org/2000/svg">
 <g id="Layer_1">
  <title>Layer 1</title>
  <g stroke="null">
   <g stroke="null" id="svg_1">
    <path stroke="null" fill="rgb(0%,81.960784%,47.058824%)" fill-rule="nonzero" d="m14.03516,9.33984l5.84765,0l0,16.05859c0,7.69922 -4.20312,11.38282 -10.52734,11.38282c-2.88672,0 -5.44531,-0.98438 -7.01563,-2.33594l2.33985,-4.37891c1.35156,0.91406 2.6289,1.46094 4.34765,1.46094c3.10547,0 5.00782,-2.22656 5.00782,-5.4375l0,-0.98438c-1.31641,1.57032 -3.17969,2.33594 -5.22657,2.33594c-5.00781,0 -8.80859,-4.16015 -8.80859,-9.34375c0,-5.17969 3.80078,-9.33984 8.80859,-9.33984c2.04688,0 3.91016,0.76562 5.22657,2.33594l0,-1.75391zm-4.09375,12.84766c2.23046,0 4.09375,-1.86329 4.09375,-4.08985c0,-2.22656 -1.86329,-4.08594 -4.09375,-4.08594c-2.23047,0 -4.09375,1.85938 -4.09375,4.08594c0,2.22656 1.86328,4.08985 4.09375,4.08985zm28.99218,4.66796l-5.84765,0l0,-1.45703c-1.13282,1.27735 -2.70313,2.04297 -4.75,2.04297c-4.09375,0 -6.35938,-2.84765 -6.35938,-6.09375c0,-4.8164 5.92188,-6.60547 11.03906,-5.07422c-0.10937,-1.57031 -1.09765,-2.69922 -3.14453,-2.69922c-1.42578,0 -3.07031,0.54688 -4.09375,1.12891l-1.7539,-4.19531c1.35156,-0.875 3.83593,-1.75 6.72656,-1.75c4.27344,0 8.18359,2.40625 8.18359,8.97656l0,9.12109zm-5.84765,-6.93359c-2.73828,-0.875 -5.26172,-0.39844 -5.26172,1.53516c0,1.1289 0.94922,1.89453 2.08203,1.89453c1.35547,0 2.89062,-1.09375 3.17969,-3.42969zm14.66797,-19.92187l0,11.09375c1.3164,-1.57032 3.17968,-2.33594 5.22656,-2.33594c5.00781,0 8.80859,4.16015 8.80859,9.33984c0,5.1836 -3.80078,9.34375 -8.80859,9.34375c-2.04688,0 -3.91016,-0.76562 -5.22656,-2.33594l0,1.75l-5.84766,0l0,-26.85546l5.84766,0zm4.09375,22.1875c2.23046,0 4.09375,-1.86329 4.09375,-4.08985c0,-2.22656 -1.86329,-4.08594 -4.09375,-4.08594c-2.23047,0 -4.09375,1.85938 -4.09375,4.08594c0,2.22656 1.86328,4.08985 4.09375,4.08985zm0,0"/>
   </g>
  </g>
 </g>

</svg>